<mxfile host="Electron" modified="2024-04-17T12:56:31.042Z" agent="Mozilla/5.0 (Windows NT 10.0; Win64; x64) AppleWebKit/537.36 (KHTML, like Gecko) draw.io/22.0.3 Chrome/114.0.5735.289 Electron/25.8.4 Safari/537.36" etag="tzNekWAvYgQ40wokclD7" version="22.0.3" type="device">
  <diagram name="Página-1" id="ggrq4dh0od8dIyCXQgjW">
    <mxGraphModel dx="1869" dy="731" grid="1" gridSize="10" guides="1" tooltips="1" connect="1" arrows="1" fold="1" page="1" pageScale="1" pageWidth="827" pageHeight="1169" math="0" shadow="0">
      <root>
        <mxCell id="0" />
        <mxCell id="1" parent="0" />
        <mxCell id="FM3oyOavrJm3HlYOAWb8-10" style="edgeStyle=orthogonalEdgeStyle;rounded=0;orthogonalLoop=1;jettySize=auto;html=1;exitX=0.5;exitY=0.5;exitDx=0;exitDy=0;exitPerimeter=0;entryX=1;entryY=0.5;entryDx=0;entryDy=0;" edge="1" parent="1" source="z_thYTd4LsREVnjttEP--1" target="z_thYTd4LsREVnjttEP--5">
          <mxGeometry relative="1" as="geometry">
            <mxPoint x="405" y="601" as="targetPoint" />
          </mxGeometry>
        </mxCell>
        <mxCell id="z_thYTd4LsREVnjttEP--1" value="Bibliotecario" style="shape=umlActor;verticalLabelPosition=bottom;verticalAlign=top;html=1;outlineConnect=0;fillColor=#e1d5e7;strokeColor=#9673a6;" parent="1" vertex="1">
          <mxGeometry x="664" y="571" width="30" height="60" as="geometry" />
        </mxCell>
        <mxCell id="FM3oyOavrJm3HlYOAWb8-7" style="edgeStyle=orthogonalEdgeStyle;rounded=0;orthogonalLoop=1;jettySize=auto;html=1;exitX=0.5;exitY=0.5;exitDx=0;exitDy=0;exitPerimeter=0;entryX=0;entryY=0.5;entryDx=0;entryDy=0;" edge="1" parent="1" source="z_thYTd4LsREVnjttEP--2" target="FM3oyOavrJm3HlYOAWb8-4">
          <mxGeometry relative="1" as="geometry">
            <mxPoint x="295" y="601" as="targetPoint" />
          </mxGeometry>
        </mxCell>
        <mxCell id="z_thYTd4LsREVnjttEP--2" value="Socio" style="shape=umlActor;verticalLabelPosition=bottom;verticalAlign=top;html=1;outlineConnect=0;fillColor=#f8cecc;strokeColor=#b85450;" parent="1" vertex="1">
          <mxGeometry x="20" y="571" width="30" height="60" as="geometry" />
        </mxCell>
        <mxCell id="z_thYTd4LsREVnjttEP--5" value="Comprobació&lt;br&gt;existència de l&#39;usuari" style="ellipse;whiteSpace=wrap;html=1;" parent="1" vertex="1">
          <mxGeometry x="414" y="690" width="110" height="60" as="geometry" />
        </mxCell>
        <mxCell id="z_thYTd4LsREVnjttEP--7" value="Comprobació&lt;br style=&quot;border-color: var(--border-color);&quot;&gt;conforne llibre prestat a&amp;nbsp; l&#39;usuari" style="ellipse;whiteSpace=wrap;html=1;" parent="1" vertex="1">
          <mxGeometry x="414" y="800" width="110" height="60" as="geometry" />
        </mxCell>
        <mxCell id="z_thYTd4LsREVnjttEP--8" value="Socio" style="shape=umlActor;verticalLabelPosition=bottom;verticalAlign=top;html=1;outlineConnect=0;fillColor=#f8cecc;strokeColor=#b85450;" parent="1" vertex="1">
          <mxGeometry x="40" y="10" width="30" height="60" as="geometry" />
        </mxCell>
        <mxCell id="z_thYTd4LsREVnjttEP--9" value="Bibliotecario" style="shape=umlActor;verticalLabelPosition=bottom;verticalAlign=top;html=1;outlineConnect=0;fillColor=#e1d5e7;strokeColor=#9673a6;" parent="1" vertex="1">
          <mxGeometry x="620" y="10" width="30" height="60" as="geometry" />
        </mxCell>
        <mxCell id="z_thYTd4LsREVnjttEP--11" value="" style="endArrow=none;html=1;rounded=0;entryX=0.5;entryY=0.5;entryDx=0;entryDy=0;entryPerimeter=0;exitX=0.5;exitY=0.5;exitDx=0;exitDy=0;exitPerimeter=0;" parent="1" source="z_thYTd4LsREVnjttEP--12" target="z_thYTd4LsREVnjttEP--9" edge="1">
          <mxGeometry width="50" height="50" relative="1" as="geometry">
            <mxPoint x="70" y="40" as="sourcePoint" />
            <mxPoint x="120" y="-10" as="targetPoint" />
          </mxGeometry>
        </mxCell>
        <mxCell id="z_thYTd4LsREVnjttEP--13" value="" style="endArrow=none;html=1;rounded=0;entryX=0.5;entryY=0.5;entryDx=0;entryDy=0;entryPerimeter=0;exitX=0.5;exitY=0.5;exitDx=0;exitDy=0;exitPerimeter=0;" parent="1" source="z_thYTd4LsREVnjttEP--8" target="z_thYTd4LsREVnjttEP--12" edge="1">
          <mxGeometry width="50" height="50" relative="1" as="geometry">
            <mxPoint x="55" y="40" as="sourcePoint" />
            <mxPoint x="635" y="40" as="targetPoint" />
          </mxGeometry>
        </mxCell>
        <mxCell id="z_thYTd4LsREVnjttEP--12" value="Prestar llibre" style="ellipse;whiteSpace=wrap;html=1;" parent="1" vertex="1">
          <mxGeometry x="290" y="15" width="120" height="50" as="geometry" />
        </mxCell>
        <mxCell id="z_thYTd4LsREVnjttEP--14" value="Identificar&lt;br&gt;soci point" style="ellipse;whiteSpace=wrap;html=1;" parent="1" vertex="1">
          <mxGeometry x="141" y="115" width="120" height="50" as="geometry" />
        </mxCell>
        <mxCell id="z_thYTd4LsREVnjttEP--15" value="Consultar disponibilidad" style="ellipse;whiteSpace=wrap;html=1;" parent="1" vertex="1">
          <mxGeometry x="454" y="116" width="120" height="50" as="geometry" />
        </mxCell>
        <mxCell id="z_thYTd4LsREVnjttEP--16" value="Crear soci" style="ellipse;whiteSpace=wrap;html=1;" parent="1" vertex="1">
          <mxGeometry x="140" y="254" width="120" height="50" as="geometry" />
        </mxCell>
        <mxCell id="z_thYTd4LsREVnjttEP--17" value="Identificar Libro" style="ellipse;whiteSpace=wrap;html=1;" parent="1" vertex="1">
          <mxGeometry x="457" y="254" width="120" height="50" as="geometry" />
        </mxCell>
        <mxCell id="z_thYTd4LsREVnjttEP--18" value="Actualizar Catalogo" style="ellipse;whiteSpace=wrap;html=1;" parent="1" vertex="1">
          <mxGeometry x="688" y="254" width="120" height="50" as="geometry" />
        </mxCell>
        <mxCell id="z_thYTd4LsREVnjttEP--19" value="" style="endArrow=none;dashed=1;html=1;rounded=0;exitX=0.5;exitY=0;exitDx=0;exitDy=0;" parent="1" source="z_thYTd4LsREVnjttEP--14" edge="1">
          <mxGeometry width="50" height="50" relative="1" as="geometry">
            <mxPoint x="250" y="100" as="sourcePoint" />
            <mxPoint x="300" y="50" as="targetPoint" />
          </mxGeometry>
        </mxCell>
        <mxCell id="z_thYTd4LsREVnjttEP--21" value="" style="endArrow=none;dashed=1;html=1;rounded=0;exitX=0.5;exitY=0;exitDx=0;exitDy=0;" parent="1" source="z_thYTd4LsREVnjttEP--16" edge="1">
          <mxGeometry width="50" height="50" relative="1" as="geometry">
            <mxPoint x="100" y="231" as="sourcePoint" />
            <mxPoint x="199" y="166" as="targetPoint" />
          </mxGeometry>
        </mxCell>
        <mxCell id="z_thYTd4LsREVnjttEP--24" value="" style="endArrow=none;dashed=1;html=1;rounded=0;exitX=0.5;exitY=0;exitDx=0;exitDy=0;" parent="1" source="z_thYTd4LsREVnjttEP--15" edge="1">
          <mxGeometry width="50" height="50" relative="1" as="geometry">
            <mxPoint x="311" y="115" as="sourcePoint" />
            <mxPoint x="410" y="50" as="targetPoint" />
          </mxGeometry>
        </mxCell>
        <mxCell id="z_thYTd4LsREVnjttEP--25" value="" style="endArrow=none;dashed=1;html=1;rounded=0;exitX=0.5;exitY=0;exitDx=0;exitDy=0;" parent="1" source="z_thYTd4LsREVnjttEP--17" edge="1">
          <mxGeometry width="50" height="50" relative="1" as="geometry">
            <mxPoint x="620" y="231" as="sourcePoint" />
            <mxPoint x="516" y="165" as="targetPoint" />
          </mxGeometry>
        </mxCell>
        <mxCell id="z_thYTd4LsREVnjttEP--27" value="" style="endArrow=none;dashed=1;html=1;rounded=0;entryX=0;entryY=0.5;entryDx=0;entryDy=0;" parent="1" target="z_thYTd4LsREVnjttEP--18" edge="1">
          <mxGeometry width="50" height="50" relative="1" as="geometry">
            <mxPoint x="580" y="280" as="sourcePoint" />
            <mxPoint x="630" y="230" as="targetPoint" />
          </mxGeometry>
        </mxCell>
        <mxCell id="z_thYTd4LsREVnjttEP--28" value="&amp;lt;include&amp;gt;" style="text;html=1;strokeColor=none;fillColor=none;align=center;verticalAlign=middle;whiteSpace=wrap;rounded=0;" parent="1" vertex="1">
          <mxGeometry x="190" y="65" width="60" height="30" as="geometry" />
        </mxCell>
        <mxCell id="z_thYTd4LsREVnjttEP--29" value="&amp;lt;include&amp;gt;" style="text;html=1;strokeColor=none;fillColor=none;align=center;verticalAlign=middle;whiteSpace=wrap;rounded=0;" parent="1" vertex="1">
          <mxGeometry x="457" y="60" width="60" height="30" as="geometry" />
        </mxCell>
        <mxCell id="z_thYTd4LsREVnjttEP--30" value="&amp;lt;include&amp;gt;" style="text;html=1;strokeColor=none;fillColor=none;align=center;verticalAlign=middle;whiteSpace=wrap;rounded=0;" parent="1" vertex="1">
          <mxGeometry x="517" y="190" width="60" height="30" as="geometry" />
        </mxCell>
        <mxCell id="z_thYTd4LsREVnjttEP--31" value="&amp;lt;extend&amp;gt;" style="text;html=1;strokeColor=none;fillColor=none;align=center;verticalAlign=middle;whiteSpace=wrap;rounded=0;" parent="1" vertex="1">
          <mxGeometry x="610" y="284" width="50" height="20" as="geometry" />
        </mxCell>
        <mxCell id="z_thYTd4LsREVnjttEP--32" value="&amp;lt;extend&amp;gt;" style="text;html=1;strokeColor=none;fillColor=none;align=center;verticalAlign=middle;whiteSpace=wrap;rounded=0;" parent="1" vertex="1">
          <mxGeometry x="201" y="190" width="60" height="30" as="geometry" />
        </mxCell>
        <mxCell id="FM3oyOavrJm3HlYOAWb8-1" value="BIBLIOTECA&lt;br&gt;&lt;br&gt;CAS 1: Sol·licitud d&#39;un llibre" style="text;html=1;strokeColor=none;fillColor=none;align=center;verticalAlign=middle;whiteSpace=wrap;rounded=0;" vertex="1" parent="1">
          <mxGeometry x="-159" y="40" width="179" height="30" as="geometry" />
        </mxCell>
        <mxCell id="FM3oyOavrJm3HlYOAWb8-2" value="BIBLIOTECA&lt;br&gt;&lt;br&gt;CAS 2: Retornar Llibre" style="text;html=1;strokeColor=none;fillColor=none;align=center;verticalAlign=middle;whiteSpace=wrap;rounded=0;" vertex="1" parent="1">
          <mxGeometry x="-159" y="601" width="179" height="30" as="geometry" />
        </mxCell>
        <mxCell id="FM3oyOavrJm3HlYOAWb8-4" value="identificació al bilbiotecar" style="ellipse;whiteSpace=wrap;html=1;" vertex="1" parent="1">
          <mxGeometry x="151" y="690" width="110" height="60" as="geometry" />
        </mxCell>
        <mxCell id="FM3oyOavrJm3HlYOAWb8-13" value="Confirmació de llibre vàlid" style="ellipse;whiteSpace=wrap;html=1;" vertex="1" parent="1">
          <mxGeometry x="414" y="920" width="110" height="60" as="geometry" />
        </mxCell>
        <mxCell id="FM3oyOavrJm3HlYOAWb8-14" value="" style="endArrow=none;dashed=1;html=1;rounded=0;exitX=0.5;exitY=0;exitDx=0;exitDy=0;" edge="1" parent="1" source="z_thYTd4LsREVnjttEP--7">
          <mxGeometry width="50" height="50" relative="1" as="geometry">
            <mxPoint x="370" y="815" as="sourcePoint" />
            <mxPoint x="469" y="750" as="targetPoint" />
          </mxGeometry>
        </mxCell>
        <mxCell id="FM3oyOavrJm3HlYOAWb8-18" value="" style="endArrow=none;dashed=1;html=1;rounded=0;exitX=0.5;exitY=0;exitDx=0;exitDy=0;entryX=0.5;entryY=1;entryDx=0;entryDy=0;" edge="1" parent="1">
          <mxGeometry width="50" height="50" relative="1" as="geometry">
            <mxPoint x="468.41" y="920" as="sourcePoint" />
            <mxPoint x="468.41" y="860" as="targetPoint" />
          </mxGeometry>
        </mxCell>
        <mxCell id="FM3oyOavrJm3HlYOAWb8-19" value="" style="endArrow=none;dashed=1;html=1;rounded=0;exitX=0.5;exitY=0;exitDx=0;exitDy=0;entryX=0.5;entryY=1;entryDx=0;entryDy=0;" edge="1" parent="1">
          <mxGeometry width="50" height="50" relative="1" as="geometry">
            <mxPoint x="468.41" y="1040" as="sourcePoint" />
            <mxPoint x="468.41" y="980" as="targetPoint" />
          </mxGeometry>
        </mxCell>
        <mxCell id="FM3oyOavrJm3HlYOAWb8-20" value="Es queda amb el llibre" style="ellipse;whiteSpace=wrap;html=1;" vertex="1" parent="1">
          <mxGeometry x="414" y="1040" width="110" height="60" as="geometry" />
        </mxCell>
        <mxCell id="FM3oyOavrJm3HlYOAWb8-21" value="" style="endArrow=none;dashed=1;html=1;rounded=0;exitX=0.5;exitY=0;exitDx=0;exitDy=0;entryX=0;entryY=0.5;entryDx=0;entryDy=0;" edge="1" parent="1" target="z_thYTd4LsREVnjttEP--5">
          <mxGeometry width="50" height="50" relative="1" as="geometry">
            <mxPoint x="261" y="720" as="sourcePoint" />
            <mxPoint x="261" y="670" as="targetPoint" />
          </mxGeometry>
        </mxCell>
        <mxCell id="FM3oyOavrJm3HlYOAWb8-22" value="&amp;lt;include&amp;gt;" style="text;html=1;strokeColor=none;fillColor=none;align=center;verticalAlign=middle;whiteSpace=wrap;rounded=0;" vertex="1" parent="1">
          <mxGeometry x="464" y="760" width="60" height="30" as="geometry" />
        </mxCell>
        <mxCell id="FM3oyOavrJm3HlYOAWb8-23" value="&amp;lt;include&amp;gt;" style="text;html=1;strokeColor=none;fillColor=none;align=center;verticalAlign=middle;whiteSpace=wrap;rounded=0;" vertex="1" parent="1">
          <mxGeometry x="464" y="880" width="60" height="30" as="geometry" />
        </mxCell>
        <mxCell id="FM3oyOavrJm3HlYOAWb8-24" value="&amp;lt;include&amp;gt;" style="text;html=1;strokeColor=none;fillColor=none;align=center;verticalAlign=middle;whiteSpace=wrap;rounded=0;" vertex="1" parent="1">
          <mxGeometry x="470" y="1000" width="60" height="30" as="geometry" />
        </mxCell>
      </root>
    </mxGraphModel>
  </diagram>
</mxfile>
